<?xml version="1.0" encoding="UTF-8" standalone="no"?><!DOCTYPE svg PUBLIC "-//W3C//DTD SVG 1.1//EN" "http://www.w3.org/Graphics/SVG/1.1/DTD/svg11.dtd"><svg width="100%" height="100%" viewBox="0 0 1484 380" version="1.1" xmlns="http://www.w3.org/2000/svg" xmlns:xlink="http://www.w3.org/1999/xlink" xml:space="preserve" xmlns:serif="http://www.serif.com/" style="fill-rule:evenodd;clip-rule:evenodd;stroke-linejoin:round;stroke-miterlimit:2;"><g id="g142"><path id="path51" d="M107.515,240.328l0,-25.298c0,-13.878 -11.42,-25.297 -25.298,-25.297l-50.595,-0c-13.878,-0 -25.298,11.419 -25.298,25.297l0,25.298l101.191,-0Z" style="fill:#ef0d7b;fill-rule:nonzero;"/><path id="path53" d="M189.732,215.934l-43.435,12.41c-12.695,3.627 -23.479,12.083 -30.03,23.546l-15.076,26.384l-37.947,25.298l0,25.298l44.271,-0l25.298,-25.298l-0,69.569l113.839,-0l0,-69.569l25.298,25.298l44.271,-0l-0,-25.298l-37.947,-25.298l-15.076,-26.384c-6.551,-11.463 -17.335,-19.919 -30.03,-23.546l-43.436,-12.41Z" style="fill:#17a6c6;fill-rule:nonzero;"/><path id="path55" d="M208.706,221.355l-12.649,31.622l12.649,63.244l-18.974,18.973l-18.973,-18.973l12.649,-63.244l-12.649,-31.622l18.973,-5.421l18.974,5.421Z" style="fill:#ef5e3b;fill-rule:nonzero;"/><path id="path57" d="M158.11,164.435l63.244,-0l0,31.622c0,17.347 -14.274,31.622 -31.622,31.622c-17.347,0 -31.622,-14.275 -31.622,-31.622l0,-31.622Z" style="fill:#ffceb6;fill-rule:nonzero;"/><path id="path59" d="M158.11,164.435l0,-9.857c0,-11.94 9.826,-21.765 21.766,-21.765c2.339,-0 4.663,0.377 6.883,1.117l16.596,5.532c10.721,3.574 17.999,13.671 17.999,24.973l-63.244,-0Z" style="fill:#b1712c;fill-rule:nonzero;"/><path id="path61" d="M63.244,303.572l-12.649,-18.973l-12.649,-0l0,12.649l-31.622,-0l0,12.648l18.974,18.974l37.946,-0l0,-25.298Z" style="fill:#ffceb6;fill-rule:nonzero;"/><path id="path63" d="M316.221,303.572l12.649,-18.973l12.648,-0l0,12.649l31.622,-0l0,12.648l-18.973,18.974l-37.946,-0l-0,-25.298Z" style="fill:#ffceb6;fill-rule:nonzero;"/><path id="path65" d="M56.92,208.706c13.878,-0 25.297,11.42 25.297,25.297l0,31.623l-50.595,-0l0,-31.623c0,-13.877 11.42,-25.297 25.298,-25.297Z" style="fill:#ef0d7b;fill-rule:nonzero;"/><path id="rect67" d="M366.816,189.733c0,-17.453 -14.169,-31.622 -31.622,-31.622c-17.453,-0 -31.622,14.169 -31.622,31.622l-0,37.946c-0,17.453 14.169,31.622 31.622,31.622c17.453,0 31.622,-14.169 31.622,-31.622l0,-37.946Z" style="fill:#718799;"/><path id="path69" d="M265.625,170.759l-25.297,-50.595l25.297,-12.649l12.649,25.298l0,31.622l-12.649,6.324Z" style="fill:#ffef20;fill-rule:nonzero;"/><path id="path71" d="M221.233,82.232l25.285,-12.642l18.964,37.928l-25.285,12.643l-18.964,-37.929Z" style="fill:#ffef20;fill-rule:nonzero;"/><path id="path73" d="M265.625,107.515l88.542,-25.297l-44.271,-75.893l-63.244,63.244l18.973,37.946Z" style="fill:#ffef20;fill-rule:nonzero;"/><path id="path75" d="M221.354,82.218l-14.954,20.685l8.63,17.261l25.298,0l-18.974,-37.946Z" style="fill:#ffef20;fill-rule:nonzero;"/><path id="path77" d="M132.813,68.486l-0,83.3c-0,0.001 -0,0.002 -0,0.004c-0,6.937 -5.709,12.645 -12.646,12.645c-0.001,-0 -0.002,-0 -0.003,-0l-75.893,-0c-0.001,-0 -0.002,-0 -0.004,-0c-6.937,-0 -12.645,-5.708 -12.645,-12.645c0,-0.002 0,-0.003 0,-0.004l0,-107.515c0,-0.001 0,-0.002 0,-0.003c0,-6.937 5.708,-12.646 12.645,-12.646c0.002,0 0.003,0 0.004,0l51.678,0c3.353,0.012 6.57,1.345 8.949,3.708l24.207,24.207c2.363,2.379 3.696,5.596 3.708,8.949Z" style="fill:#17a6c6;fill-rule:nonzero;"/><path id="path79" d="M131.666,63.244l-30.475,0l-0,-30.475c1.38,0.622 2.637,1.49 3.707,2.561l24.207,24.207c1.071,1.07 1.939,2.327 2.561,3.707Z" style="fill:#17a6c6;fill-rule:nonzero;"/><path id="path81" d="M321.407,26.057l4.04,-2.694c3.025,-2.016 6.58,-3.093 10.216,-3.093c6.462,0 12.469,3.401 15.793,8.942c5.029,8.381 2.555,19.379 -5.577,24.8l-5.879,3.92l-18.593,-31.875Z" style="fill:#ffef20;fill-rule:nonzero;"/><path id="path83" d="M20.825,333.342c1.186,1.185 2.796,1.852 4.473,1.852l82.217,0c1.677,0 3.287,-0.667 4.472,-1.852l14.501,-14.501l0,54.3c0,3.469 2.855,6.324 6.325,6.324l113.839,0c3.47,-0 6.325,-2.855 6.325,-6.324l-0,-54.3l14.5,14.501c1.186,1.185 2.796,1.852 4.473,1.852l82.217,0c1.677,0 3.287,-0.667 4.473,-1.852l18.973,-18.974c1.185,-1.185 1.852,-2.795 1.852,-4.472l-0,-18.973c-0,-3.469 -2.855,-6.324 -6.325,-6.324l-25.297,-0c-0,-3.47 -2.855,-6.325 -6.325,-6.325l-12.648,0c-2.113,0 -4.091,1.059 -5.263,2.817l-9.14,13.711l-31.443,-20.962l-14.335,-25.088c-7.344,-12.917 -19.487,-22.438 -33.783,-26.489l-14.358,-4.103c4.641,-6.433 7.137,-14.17 7.131,-22.103l-0,-31.622c0.013,-14.021 -9.019,-26.552 -22.325,-30.973l-16.594,-5.531c-2.865,-0.956 -5.865,-1.443 -8.885,-1.443c-15.409,0 -28.089,12.68 -28.089,28.09c-0,-0 -0,0 -0,0.001l-0,41.478c-0.006,7.933 2.49,15.67 7.131,22.103l-14.358,4.103c-14.296,4.051 -26.439,13.572 -33.783,26.489l-14.336,25.088l-31.442,20.962l-9.141,-13.711c-1.171,-1.758 -3.149,-2.817 -5.262,-2.817l-12.649,0c-3.469,0 -6.324,2.855 -6.324,6.325l-25.298,-0c-3.469,-0 -6.324,2.855 -6.324,6.324l0,18.973c-0,1.677 0.667,3.287 1.852,4.472l18.973,18.974Zm301.72,-27.855l9.709,-14.564l2.94,0l-0,18.973l12.649,0l-0,-12.648l18.973,-0l0,10.029l-15.268,15.268l-29.003,0l0,-17.058Zm-158.11,-147.376l-0,-3.533c-0,-8.47 6.97,-15.441 15.441,-15.441c1.66,0 3.308,0.268 4.883,0.793l16.596,5.532c5.97,1.985 10.664,6.678 12.649,12.649l-49.569,-0Zm-0,12.648l50.595,0l0,25.298c0,13.878 -11.42,25.298 -25.298,25.298c-13.877,-0 -25.297,-11.42 -25.297,-25.298l-0,-25.298Zm24.158,88.542l2.279,0l10.968,54.841l-12.108,12.108l-12.107,-12.108l10.968,-54.841Zm-6.254,-26.026c4.881,0.971 9.906,0.971 14.787,-0l-5.351,13.377l-4.085,0l-5.351,-13.377Zm-112.77,73.682l35.13,-23.42c0.817,-0.545 1.496,-1.272 1.983,-2.125l15.077,-26.384c5.711,-10.047 15.155,-17.452 26.275,-20.603l18.973,-5.421l9.83,24.576l-12.279,61.401c-0.415,2.071 0.235,4.218 1.729,5.712l18.973,18.973c2.454,2.454 6.491,2.454 8.945,0l18.973,-18.973c1.493,-1.494 2.143,-3.641 1.729,-5.712l-12.279,-61.401l9.829,-24.576l18.973,5.421c11.12,3.15 20.564,10.556 26.276,20.603l15.077,26.384c0.487,0.853 1.166,1.58 1.983,2.125l35.13,23.42l0,15.588l-35.327,0l-23.445,-23.445c-1.185,-1.186 -2.795,-1.852 -4.472,-1.852c-3.469,-0 -6.324,2.855 -6.324,6.324l-0,63.244l-101.191,0l0,-63.244c0,-3.469 -2.855,-6.324 -6.324,-6.324c-1.677,-0 -3.287,0.666 -4.473,1.852l-23.444,23.445l-35.327,0l-0,-15.588Zm-56.92,-9.709l18.973,-0l0,12.648l12.649,0l-0,-18.973l2.94,0l9.709,14.564l-0,17.058l-29.003,0l-15.268,-15.268l-0,-10.029Z" style="fill-rule:nonzero;"/><path id="path85" d="M6.324,246.652l18.974,0l-0,18.974c-0,3.469 2.855,6.324 6.324,6.324l50.595,-0c3.47,-0 6.325,-2.855 6.325,-6.324l-0,-18.974l18.973,0c3.469,0 6.324,-2.855 6.324,-6.324l0,-25.298c-0.019,-17.34 -14.282,-31.602 -31.622,-31.622l-50.595,0c-17.34,0.02 -31.602,14.282 -31.622,31.622l0,25.298c0,3.469 2.855,6.324 6.324,6.324Zm69.569,12.649l-37.947,0l0,-25.298c0,-10.408 8.565,-18.973 18.974,-18.973c10.408,0 18.973,8.565 18.973,18.973l-0,25.298Zm-63.244,-44.271c0.012,-10.404 8.569,-18.961 18.973,-18.973l50.595,0c10.404,0.012 18.962,8.569 18.974,18.973l-0,18.973l-12.649,0c-0,-17.347 -14.275,-31.622 -31.622,-31.622c-17.348,0 -31.622,14.275 -31.622,31.622l-12.649,0l-0,-18.973Z" style="fill-rule:nonzero;"/><circle id="circle87" cx="56.92" cy="240.328" r="6.324"/><path id="path89" d="M316.221,151.786c-10.404,0.012 -18.962,8.569 -18.974,18.973l0,75.893c0.012,10.404 8.57,18.962 18.974,18.974l37.946,-0c10.404,-0.012 18.962,-8.57 18.973,-18.974l0,-75.893c-0.011,-10.404 -8.569,-18.961 -18.973,-18.973l-37.946,0Zm44.271,18.973l-0,75.893c-0.004,3.468 -2.857,6.321 -6.325,6.325l-37.946,-0c-3.468,-0.004 -6.321,-2.857 -6.325,-6.325l0,-75.893c0.004,-3.468 2.857,-6.32 6.325,-6.324l3.704,-0l4.472,4.472c1.186,1.186 2.796,1.852 4.473,1.852l12.648,0c1.677,0 3.287,-0.666 4.473,-1.852l4.472,-4.472l3.704,-0c3.468,0.004 6.321,2.856 6.325,6.324Z" style="fill-rule:nonzero;"/><path id="path91" d="M44.271,170.759l75.893,0c10.404,-0.012 18.961,-8.569 18.973,-18.973l0,-83.302c0.014,-5.033 -1.988,-9.868 -5.557,-13.417l-24.212,-24.212c-3.549,-3.568 -8.384,-5.571 -13.416,-5.557l-51.681,-0c-10.404,0.012 -18.961,8.569 -18.973,18.973l-0,107.515c0.012,10.404 8.569,18.961 18.973,18.973Zm63.244,-123.868l10.029,10.029l-10.029,-0l0,-10.029Zm-69.569,-2.62c0.004,-3.468 2.857,-6.32 6.325,-6.324l50.595,-0l0,25.297c0,3.47 2.855,6.325 6.325,6.325l25.297,-0l0,82.217c-0.004,3.468 -2.856,6.321 -6.324,6.325l-75.893,-0c-3.468,-0.004 -6.321,-2.857 -6.325,-6.325l0,-107.515Z" style="fill-rule:nonzero;"/><rect id="path93" x="50.595" y="132.813" width="63.244" height="12.649" style="fill-rule:nonzero;"/><rect id="path95" x="75.893" y="107.515" width="37.946" height="12.649" style="fill-rule:nonzero;"/><rect id="path97" x="50.595" y="107.515" width="12.649" height="12.649" style="fill-rule:nonzero;"/><rect id="path99" x="94.866" y="82.218" width="18.973" height="12.649" style="fill-rule:nonzero;"/><rect id="path101" x="50.595" y="82.218" width="31.622" height="12.649" style="fill-rule:nonzero;"/><rect id="path103" x="50.595" y="56.92" width="31.622" height="12.649" style="fill-rule:nonzero;"/><path id="path105" d="M323.524,17.135l-8.165,-13.997c-1.132,-1.941 -3.216,-3.138 -5.463,-3.138c-1.677,0 -3.286,0.667 -4.472,1.853l-62.518,62.518l-24.38,12.19c-0.912,0.455 -1.699,1.126 -2.295,1.953l-0.002,-0.002l-0.053,0.073l-0.007,0.01l-14.895,20.603c-1.378,1.906 -1.583,4.43 -0.531,6.534l8.63,17.26c1.07,2.14 3.265,3.497 5.657,3.496l21.389,0l23.55,47.1c1.068,2.14 3.263,3.497 5.654,3.497c0.983,0 1.952,-0.229 2.831,-0.669l12.649,-6.324c2.139,-1.07 3.496,-3.265 3.496,-5.657l-0,-31.622c-0,-0.982 -0.229,-1.95 -0.668,-2.828l-9.241,-18.482l81.215,-23.204c2.707,-0.774 4.587,-3.266 4.587,-6.081c-0,-1.12 -0.298,-2.22 -0.862,-3.187l-11.165,-19.141l0.923,-0.615c6.879,-4.583 11.021,-12.322 11.021,-20.588c0,-13.572 -11.167,-24.739 -24.739,-24.739c-4.255,-0 -8.439,1.097 -12.146,3.187Zm-104.585,96.705l-5.169,-10.337l6.595,-9.122l9.73,19.459l-11.156,-0Zm10.901,-28.794l13.983,-6.992l13.317,26.633l-13.984,6.992l-13.316,-26.633Zm42.11,75.48l-3.496,1.748l-19.641,-39.282l13.984,-6.992l9.153,18.306l-0,26.22Zm-3.015,-60.534l-14.588,-29.174l54.22,-54.22l36.036,61.775l-75.668,21.619Zm77.097,-67.526c3.311,5.501 1.685,12.729 -3.661,16.284l-0.291,0.195l-12.182,-20.883c5.655,-3.074 12.825,-1.117 16.134,4.404Z" style="fill-rule:nonzero;"/></g><g id="text45-8"><text x="419.675px" y="267.674px" style="font-family:'Roboto-Regular', 'Roboto';font-size:266.667px;">H<tspan x="612.123px " y="267.674px ">A</tspan>RMSE</text></g><g id="text49-9"><text x="521.823px" y="361.928px" style="font-family:'ArialMT', 'Arial', sans-serif;font-size:83.333px;">Digital Communications</text></g></svg>